<svg width="150" height="150" viewBox="0 0 150 150" fill="none" xmlns="http://www.w3.org/2000/svg">
<path fill-rule="evenodd" clip-rule="evenodd" d="M97.4654 129C126.479 129 150 105.495 150 76.5C150 47.5051 126.479 24 97.4654 24C68.4514 24 44.9309 47.5051 44.9309 76.5C44.9309 105.495 68.4514 129 97.4654 129ZM10.821 45.3963L15.7913 50.3633C10.9234 56.199 7.75068 63.4964 7.02896 71.5H0C0.756148 61.5666 4.70401 52.5247 10.821 45.3963V45.3963ZM15.774 40.4465C22.9071 34.3335 31.9549 30.3883 41.8949 29.6326V36.6569C33.886 37.3782 26.5839 40.5488 20.7443 45.4135L15.774 40.4465ZM79.9735 104.604L75.0032 99.6367C79.8711 93.801 83.0439 86.5037 83.7656 78.5L90.7945 78.5C90.0384 88.4335 86.0905 97.4753 79.9735 104.604ZM75.0205 109.554C67.8874 115.666 58.8396 119.612 48.8996 120.367L48.8996 113.343C56.9085 112.622 64.2107 109.451 70.0502 104.586L75.0205 109.554ZM0 78.5H7.02896C7.75068 86.5037 10.9234 93.801 15.7913 99.6367L10.821 104.604C4.70401 97.4753 0.756148 88.4335 0 78.5V78.5ZM90.7945 71.5H83.7656C83.0439 63.4964 79.8711 56.199 75.0032 50.3633L79.9735 45.3963C86.0905 52.5247 90.0384 61.5666 90.7945 71.5ZM15.774 109.554L20.7443 104.586C26.5839 109.451 33.886 112.622 41.8949 113.343V120.367C31.9549 119.612 22.9071 115.666 15.774 109.554ZM75.0205 40.4465L70.0502 45.4135C64.2107 40.5488 56.9085 37.3782 48.8996 36.6569L48.8996 29.6326C58.8396 30.3883 67.8874 34.3335 75.0205 40.4465Z" fill="white"/>
</svg>
